<?xml version="1.0" encoding="UTF-8"?>
<svg id="Layer_1" data-name="Layer 1" xmlns="http://www.w3.org/2000/svg" viewBox="0 0 332.74 201.78">
  <defs>
    <style>
      .cls-1 {
        fill: #1d1d1b;
      }

      .cls-2 {
        fill: #fff;
      }

      .cls-3 {
        fill: #0069b3;
      }
    </style>
  </defs>
  <rect class="cls-2" y=".58" width="209.67" height="83.92"/>
  <path class="cls-3" d="M0,201.3h5.36v-20.88h.08l10.68,20.88h6.84v-27.92h-5.36v20.88h-.08l-10.64-20.88H0v27.92h0ZM28.16,201.3h5.6v-12.24h11.2v12.24h5.6v-27.92h-5.6v11.28h-11.2v-11.28h-5.6v27.92h0ZM71.56,173.9c-2.04-.68-4.28-1-6.68-1-4.92,0-9.76,2.28-9.76,8.52,0,9.24,12.24,7.04,12.24,12.36,0,2.52-2.84,3.6-4.96,3.6s-4.4-.68-6.32-1.72l-.52,5.04c2.76.68,4.12,1.08,7.16,1.08,5.64,0,10.48-2.32,10.48-8.44,0-9.36-12.24-7.32-12.24-12.16,0-3.04,2.48-3.88,4.4-3.88s3.92.44,5.68,1.2l.52-4.6h0ZM93.48,201.3h5.6v-23.52h8v-4.4h-21.6v4.4h8v23.52h0ZM106.61,201.3h5.36v-7.56c0-2.96,0-8.4,4.36-8.4.96,0,1.92.16,2.4.44v-5.4c-.56-.16-1.12-.16-1.64-.16-3.2,0-5.4,3.24-5.64,5.16h-.08v-4.68h-4.76v20.6h0ZM140.97,180.7h-5.36v10.08c0,2.64-.84,6.84-4.72,6.84-3.44,0-3.48-3.4-3.48-5.92v-11h-5.36v13c0,4.64,2.12,8.08,7,8.08,2.8,0,5.12-1.28,6.76-3.28h.08v2.8h5.08v-20.6h0ZM159.09,180.98c-1.68-.36-3.32-.76-5.84-.76-4.2,0-8.08,1.96-8.08,6.4,0,7.44,9.32,4.68,9.32,8.72,0,2-2.16,2.52-3.52,2.52-1.84,0-3.6-.52-5.28-1.36l-.32,4.4c1.96.52,4.04.88,6.08.88,4.36,0,8.64-1.92,8.64-6.72,0-7.44-9.32-5.36-9.32-8.64,0-1.76,1.72-2.28,3.16-2.28,1.96,0,3.16.32,4.8.88l.36-4.04h0ZM166.01,195.1c0,4.08,2.32,6.68,6.52,6.68,1.6,0,2.84-.16,3.96-.48l-.16-4.24c-.56.36-1.48.56-2.44.56-2.04,0-2.52-1.64-2.52-3.4v-9.6h4.76v-3.92h-4.76v-5.84l-5.36,1.72v4.12h-3.96v3.92h3.96v10.48h0Z"/>
  <path class="cls-1" d="M8.4,132.58h3.96c4.2,0,8.64.84,8.64,6.3,0,4.86-4.74,5.82-8.64,5.82h-3.96v-12.12h0ZM8.4,116.02h3.24c3.84,0,8.1.36,8.1,5.22,0,4.32-4.38,5.1-7.92,5.1h-3.42v-10.32h0ZM0,151.3h14.64c5.28,0,14.76-1.56,14.76-12.12,0-5.16-3.9-9-9.6-9.54v-.12c4.98-.9,8.34-4.38,8.34-9.36,0-9.18-8.1-10.74-13.5-10.74H0v41.88h0ZM36.56,128.92c2.7-2.04,6.12-3.36,9.54-3.36,4.74,0,6.96,1.68,6.96,6.66h-4.44c-3.36,0-7.32.3-10.38,1.8s-5.28,4.2-5.28,8.82c0,5.88,5.34,9.18,10.8,9.18,3.66,0,7.68-1.92,9.54-5.34h.12c.06.96.06,3,.36,4.62h7.08c-.18-2.4-.3-4.56-.36-6.9-.06-2.28-.12-4.62-.12-7.74v-3.96c0-9.12-3.9-13.02-13.32-13.02-3.42,0-7.62.9-10.74,2.34l.24,6.9h0ZM40.64,142.36c0-4.74,5.34-5.34,8.94-5.34h3.48c0,2.4-.36,4.62-1.68,6.36-1.26,1.68-3.18,2.76-5.64,2.76-2.88,0-5.1-1.14-5.1-3.78h0ZM66.08,151.3h8.04v-11.34c0-4.44,0-12.6,6.54-12.6,1.44,0,2.88.24,3.6.66v-8.1c-.84-.24-1.68-.24-2.46-.24-4.8,0-8.1,4.86-8.46,7.74h-.12v-7.02h-7.14v30.9h0ZM94.28,142c0,6.12,3.48,10.02,9.78,10.02,2.4,0,4.26-.24,5.94-.72l-.24-6.36c-.84.54-2.22.84-3.66.84-3.06,0-3.78-2.46-3.78-5.1v-14.4h7.14v-5.88h-7.14v-8.76l-8.04,2.58v6.18h-5.94v5.88h5.94v15.72h0ZM134.88,120.82c-2.52-.54-4.98-1.14-8.76-1.14-6.3,0-12.12,2.94-12.12,9.6,0,11.16,13.98,7.02,13.98,13.08,0,3-3.24,3.78-5.28,3.78-2.76,0-5.4-.78-7.92-2.04l-.48,6.6c2.94.78,6.06,1.32,9.12,1.32,6.54,0,12.96-2.88,12.96-10.08,0-11.16-13.98-8.04-13.98-12.96,0-2.64,2.58-3.42,4.74-3.42,2.94,0,4.74.48,7.2,1.32l.54-6.06h0ZM160.02,151.3h8.4v-18.36h16.8v18.36h8.4v-41.88h-8.4v16.92h-16.8v-16.92h-8.4v41.88h0ZM206.32,132.82c.36-4.14,2.64-7.26,7.14-7.26s6.3,3.36,6.54,7.26h-13.68ZM225.4,143.02c-3,1.68-6.36,3.12-10.26,3.12-4.98,0-8.46-2.82-8.82-7.8h21.36c0-10.8-3.24-18.66-14.7-18.66-9.6,0-14.34,7.38-14.34,16.32,0,10.14,5.94,16.02,16.14,16.02,4.32,0,7.68-.84,10.62-2.46v-6.54h0ZM234.6,128.92c2.7-2.04,6.12-3.36,9.54-3.36,4.74,0,6.96,1.68,6.96,6.66h-4.44c-3.36,0-7.32.3-10.38,1.8-3.06,1.5-5.28,4.2-5.28,8.82,0,5.88,5.34,9.18,10.8,9.18,3.66,0,7.68-1.92,9.54-5.34h.12c.06.96.06,3,.36,4.62h7.08c-.18-2.4-.3-4.56-.36-6.9-.06-2.28-.12-4.62-.12-7.74v-3.96c0-9.12-3.9-13.02-13.32-13.02-3.42,0-7.62.9-10.74,2.34l.24,6.9h0ZM238.68,142.36c0-4.74,5.34-5.34,8.94-5.34h3.48c0,2.4-.36,4.62-1.68,6.36-1.26,1.68-3.18,2.76-5.64,2.76-2.88,0-5.1-1.14-5.1-3.78h0ZM264.52,151.3h8.04v-45h-8.04v45h0ZM283.66,142c0,6.12,3.48,10.02,9.78,10.02,2.4,0,4.26-.24,5.94-.72l-.24-6.36c-.84.54-2.22.84-3.66.84-3.06,0-3.78-2.46-3.78-5.1v-14.4h7.14v-5.88h-7.14v-8.76l-8.04,2.58v6.18h-5.94v5.88h5.94v15.72h0ZM304.36,151.3h8.04v-15.12c0-3.96,1.26-10.26,7.08-10.26,5.16,0,5.22,5.1,5.22,8.88v16.5h8.04v-19.5c0-6.96-3.18-12.12-10.5-12.12-4.2,0-7.68,1.92-9.72,4.92h-.12v-18.3h-8.04v45h0Z"/>
  <path class="cls-3" d="M211.18,85.04V0H0v85.04h211.18ZM84.91,8.21l-14.58,68.45h-22.88l-14.38-47.36h-.2l-9.57,47.36H5.96L20.65,8.21h22.96l14.1,47.47h.19l9.66-47.47h17.35ZM150.34,8.21l-14.29,68.45h-18.42l6.11-29.32h-21.79l-6.11,29.32h-18.42l14.29-68.45h18.42l-5.41,26.19h21.78l5.42-26.19h18.42ZM203.27,10.07l-4.44,13.63c-3.55-1.66-8.38-3.13-15.17-3.13-7.29,0-13.21,1.07-13.21,6.57,0,9.7,26.71,6.08,26.71,26.87,0,18.92-17.65,23.83-33.61,23.83-7.1,0-15.28-1.67-21.28-3.54l4.34-13.92c3.64,2.36,10.94,3.93,16.95,3.93s14.68-1.08,14.68-8.14c0-10.99-26.71-6.87-26.71-26.17,0-17.66,15.58-22.95,30.66-22.95,8.48,0,16.46.89,21.09,3.04h0Z"/>
</svg>